{"title":"Wolf Creek S01E04 Opalville 720p HDTV HEVC 2CH x265","uid":15788363,"size":320535436,"categoryP":"video","categoryS":"hd___tv_shows","magnet":"?xt=urn:btih:43428fd36744c4ed261d8fd31234b20f43ea4dce&amp;dn=Wolf+Creek+S01E04+Opalville+720p+HDTV+HEVC+2CH+x265&amp;tr=udp%3A%2F%2Ftracker.leechers-paradise.org%3A6969&amp;tr=udp%3A%2F%2Fzer0day.ch%3A1337&amp;tr=udp%3A%2F%2Fopen.demonii.com%3A1337&amp;tr=udp%3A%2F%2Ftracker.coppersurfer.tk%3A6969&amp;tr=udp%3A%2F%2Fexodus.desync.com%3A6969","seeders":5,"leechers":3,"uploader":"nayhtut","files":1,"time":1473355097,"description":"Source: Wolf Creek S01E04 Opalville 720p HDTV X264-BullRout (1 GB)\r\n\r\n\r\nComplete name                            : Wolf.Creek.S01E04.Opalville.720p.HDTV.HEVC.2CH.x265.mkv\r\nFormat                                   : Matroska\r\nFormat version                           : Version 4 / Version 2\r\nFile size                                : 306 MiB\r\nDuration                                 : 44mn 27s\r\nOverall bit rate                         : 961 Kbps\r\nWriting application                      : Lavf57.25.100\r\nWriting library                          : Lavf57.25.100\r\n\r\nVideo\r\n\r\nID                                       : 1\r\nFormat                                   : V_MPEGH/ISO/HEVC\r\nCodec ID                                 : V_MPEGH/ISO/HEVC\r\nDuration                                 : 44mn 27s\r\nBit rate                                 : 750 Kbps\r\nWidth                                    : 1 280 pixels\r\nHeight                                   : 640 pixels\r\nDisplay aspect ratio                     : 2.000\r\nFrame rate                               : 25.000 fps\r\nBits/(Pixel*Frame)                       : 0.037\r\nStream size                              : 239 MiB (78%)\r\nWriting library                          : Lavc57.48.101 libx265\r\nDefault                                  : Yes\r\nForced                                   : No\r\nDURATION                                 : 00:44:27.091000000\r\n\r\nAudio\r\n\r\nID                                       : 2\r\nFormat                                   : AC-3\r\nFormat/Info                              : Audio Coding 3\r\nMode extension                           : CM (complete main)\r\nFormat settings, Endianness              : Big\r\nCodec ID                                 : A_AC3\r\nDuration                                 : 44mn 27s\r\nBit rate mode                            : Constant\r\nBit rate                                 : 192 Kbps\r\nChannel(s)                               : 2 channels\r\nChannel positions                        : Front: L R\r\nSampling rate                            : 48.0 KHz\r\nBit depth                                : 16 bits\r\nCompression mode                         : Lossy\r\nStream size                              : 61.0 MiB (20%)\r\nWriting library                          : Lavc57.24.102 ac3\r\nDefault                                  : Yes\r\nForced                                   : No\r\nDURATION                                 : 00:44:27.071000000","torrent":{"xt":"urn:btih:43428fd36744c4ed261d8fd31234b20f43ea4dce","amp;dn":"Wolf+Creek+S01E04+Opalville+720p+HDTV+HEVC+2CH+x265","amp;tr":["udp%3A%2F%2Ftracker.leechers-paradise.org%3A6969","udp%3A%2F%2Fzer0day.ch%3A1337","udp%3A%2F%2Fopen.demonii.com%3A1337","udp%3A%2F%2Ftracker.coppersurfer.tk%3A6969","udp%3A%2F%2Fexodus.desync.com%3A6969"],"infoHash":"43428fd36744c4ed261d8fd31234b20f43ea4dce","infoHashBuffer":{"type":"Buffer","data":[67,66,143,211,103,68,196,237,38,29,143,211,18,52,178,15,67,234,77,206]},"announce":[],"urlList":[]}}